<svg width="17" height="16" viewBox="0 0 17 16" fill="none" xmlns="http://www.w3.org/2000/svg">
<g id="magic-wand (1) 1" clip-path="url(#clip0_6020_1616)">
<g id="Group">
<path id="Vector" d="M16.0248 4.64503C16.0268 4.64506 16.0289 4.64509 16.031 4.64509C16.2082 4.64506 16.3678 4.54746 16.4484 4.38918C16.53 4.22903 16.5139 4.04006 16.4064 3.89603L15.4592 2.62665L15.9678 1.12662C16.0255 0.956433 15.9824 0.771745 15.8553 0.644651C15.7283 0.51762 15.5436 0.474464 15.3733 0.532183L13.8733 1.04081L12.604 0.0935576C12.46 -0.0139111 12.271 -0.0300048 12.1108 0.0515577C11.9507 0.133151 11.8526 0.295495 11.8549 0.475214L11.8752 2.059L10.582 2.97353C10.4353 3.07731 10.3616 3.25206 10.3897 3.42959C10.4178 3.60712 10.5419 3.75053 10.7135 3.8039L12.226 4.27403L12.6962 5.78653C12.7496 5.95815 12.893 6.08225 13.0705 6.11034C13.0955 6.11431 13.1205 6.11625 13.1452 6.11625C13.2958 6.11625 13.4374 6.04406 13.5266 5.918L14.4411 4.62484L16.0248 4.64503Z" fill="white"/>
<path id="Vector_2" d="M6.40934 9.42782C6.22628 9.24476 5.9295 9.24476 5.74644 9.42782L0.774594 14.3997C0.408469 14.7658 0.408469 15.3594 0.774594 15.7255C1.14072 16.0916 1.73431 16.0916 2.10041 15.7255L7.07225 10.7536C7.25531 10.5706 7.25531 10.2738 7.07225 10.0907L6.40934 9.42782Z" fill="white"/>
<path id="Vector_3" d="M11.477 5.023L10.9713 4.86584L7.07227 8.76492L7.73514 9.42783L11.6342 5.52872L11.477 5.023Z" fill="white"/>
<path id="Vector_4" d="M16.0312 10H15.5625V9.53125C15.5625 9.27237 15.3526 9.0625 15.0938 9.0625C14.8349 9.0625 14.625 9.27237 14.625 9.53125V10H14.1562C13.8974 10 13.6875 10.2099 13.6875 10.4688C13.6875 10.7276 13.8974 10.9375 14.1562 10.9375H14.625V11.4062C14.625 11.6651 14.8349 11.875 15.0938 11.875C15.3526 11.875 15.5625 11.6651 15.5625 11.4062V10.9375H16.0312C16.2901 10.9375 16.5 10.7276 16.5 10.4688C16.5 10.2099 16.2901 10 16.0312 10Z" fill="white"/>
<path id="Vector_5" d="M5.0625 5.3125C4.80362 5.3125 4.59375 5.52237 4.59375 5.78125C4.59375 6.04013 4.80362 6.25 5.0625 6.25H5.53125V6.71875C5.53125 6.97762 5.74112 7.1875 6 7.1875C6.25888 7.1875 6.46875 6.97762 6.46875 6.71875V6.25H6.9375C7.19637 6.25 7.40625 6.04013 7.40625 5.78125C7.40625 5.52237 7.19637 5.3125 6.9375 5.3125H6.46875V4.84375C6.46875 4.58487 6.25888 4.375 6 4.375C5.74112 4.375 5.53125 4.58487 5.53125 4.84375V5.3125H5.0625Z" fill="white"/>
<path id="Vector_6" d="M7.25 1.875H7.71875V2.34375C7.71875 2.60262 7.92862 2.8125 8.1875 2.8125C8.44638 2.8125 8.65625 2.60262 8.65625 2.34375V1.875H9.125C9.38387 1.875 9.59375 1.66513 9.59375 1.40625C9.59375 1.14737 9.38387 0.9375 9.125 0.9375H8.65625V0.46875C8.65625 0.209875 8.44638 0 8.1875 0C7.92862 0 7.71875 0.209875 7.71875 0.46875V0.9375H7.25C6.99112 0.9375 6.78125 1.14737 6.78125 1.40625C6.78125 1.66513 6.99112 1.875 7.25 1.875Z" fill="white"/>
<path id="Vector_7" d="M11.3438 10.4688C11.6026 10.4688 11.8125 10.2589 11.8125 10C11.8125 9.74112 11.6026 9.53125 11.3438 9.53125C11.0849 9.53125 10.875 9.74112 10.875 10C10.875 10.2589 11.0849 10.4688 11.3438 10.4688Z" fill="white"/>
<path id="Vector_8" d="M15.0938 7.96875C15.3526 7.96875 15.5625 7.75888 15.5625 7.5C15.5625 7.24112 15.3526 7.03125 15.0938 7.03125C14.8349 7.03125 14.625 7.24112 14.625 7.5C14.625 7.75888 14.8349 7.96875 15.0938 7.96875Z" fill="white"/>
<path id="Vector_9" d="M4.90625 3.28125C5.16513 3.28125 5.375 3.07138 5.375 2.8125C5.375 2.55362 5.16513 2.34375 4.90625 2.34375C4.64737 2.34375 4.4375 2.55362 4.4375 2.8125C4.4375 3.07138 4.64737 3.28125 4.90625 3.28125Z" fill="white"/>
</g>
</g>
<defs>
<clipPath id="clip0_6020_1616">
<rect width="16" height="16" fill="white" transform="translate(0.5)"/>
</clipPath>
</defs>
</svg>
